<?xml version="1.0" standalone="no"?>
<!DOCTYPE svg PUBLIC "-//W3C//DTD SVG 20010904//EN"
 "http://www.w3.org/TR/2001/REC-SVG-20010904/DTD/svg10.dtd">
<svg version="1.0" xmlns="http://www.w3.org/2000/svg"
 width="475.000000pt" height="336.000000pt" viewBox="0 0 475.000000 336.000000"
 preserveAspectRatio="xMidYMid meet">

<g transform="translate(0.000000,336.000000) scale(0.100000,-0.100000)"
fill="#0D0D0D" stroke="none">
<path d="M1565 3334 c-16 -2 -68 -9 -115 -15 -165 -21 -346 -77 -503 -156
-706 -352 -1069 -1145 -876 -1918 126 -503 490 -927 969 -1129 117 -50 250
-91 343 -106 104 -17 575 -13 665 6 441 89 839 373 1090 776 50 80 55 99 11
37 -42 -58 -129 -151 -204 -217 -346 -307 -874 -416 -1313 -272 -543 177 -909
633 -963 1198 -61 641 337 1238 961 1442 320 105 717 76 1015 -72 196 -98 356
-230 508 -418 18 -23 13 -10 -15 35 -250 413 -640 687 -1119 785 -99 20 -374
35 -454 24z"/>
<path d="M1538 2011 c-113 -36 -165 -131 -139 -251 14 -67 45 -111 174 -246
110 -117 134 -159 123 -219 -7 -38 -20 -51 -58 -60 -21 -5 -33 -1 -52 19 -22
21 -26 34 -26 86 l0 60 -86 0 -87 0 6 -75 c11 -146 87 -215 238 -215 153 0
254 104 234 239 -11 70 -34 106 -169 260 -125 143 -143 173 -134 231 4 33 50
64 82 56 31 -8 56 -52 56 -101 l0 -35 81 0 81 0 -4 69 c-3 60 -8 75 -34 107
-45 56 -96 78 -184 81 -41 1 -87 -2 -102 -6z"/>
<path d="M4365 2008 c-50 -17 -96 -58 -116 -102 -17 -37 -19 -70 -19 -341 0
-292 1 -302 23 -345 36 -73 109 -110 216 -110 117 0 200 53 227 146 23 81 17
604 -8 650 -24 44 -81 91 -125 103 -48 14 -158 13 -198 -1z m154 -134 c20 -26
21 -39 21 -311 l0 -284 -25 -24 c-32 -33 -60 -31 -96 4 l-29 29 0 272 c0 321
4 337 82 339 17 1 34 -8 47 -25z"/>
<path d="M2000 1565 l0 -445 80 0 80 0 2 208 3 207 83 3 82 3 0 -211 0 -210
80 0 80 0 0 445 0 445 -80 0 -80 0 0 -175 0 -176 -82 3 -83 3 -3 173 -2 172
-80 0 -80 0 0 -445z"/>
<path d="M2650 1565 l0 -445 80 0 80 0 0 445 0 445 -80 0 -80 0 0 -445z"/>
<path d="M2960 1565 l0 -445 80 0 80 0 0 164 c0 91 4 167 8 170 4 2 44 -71 87
-165 l80 -169 93 0 c50 0 92 1 92 3 0 2 -59 113 -130 246 l-131 243 103 191
c57 105 105 195 106 199 2 4 -31 8 -73 8 l-76 0 -77 -157 -77 -158 -3 158 -3
157 -79 0 -80 0 0 -445z"/>
<path d="M3590 1565 l0 -445 80 0 80 0 2 208 3 207 83 3 82 3 0 -211 0 -210
80 0 80 0 0 445 0 445 -80 0 -80 0 0 -175 0 -176 -82 3 -83 3 -3 173 -2 172
-80 0 -80 0 0 -445z"/>
</g>
</svg>
